<!DOCTYPE svg PUBLIC "-//W3C//DTD SVG 1.1//EN" "http://www.w3.org/Graphics/SVG/1.1/DTD/svg11.dtd">
<!-- Uploaded to: SVG Repo, www.svgrepo.com, Transformed by: SVG Repo Mixer Tools -->
<svg width="64px" height="64px" viewBox="0 0 48.00 48.00" xmlns="http://www.w3.org/2000/svg" fill="#4555E2" transform="matrix(1, 0, 0, 1, 0, 0)" stroke="#4555E2" stroke-width="0.00048000000000000007">
<g id="SVGRepo_bgCarrier" stroke-width="0"/>
<g id="SVGRepo_tracerCarrier" stroke-linecap="round" stroke-linejoin="round" stroke="#CCCCCC" stroke-width="0.384"/>
<g id="SVGRepo_iconCarrier"> <path d="M0 0h48v48H0z" fill="none"/> <g id="Shopicon"> <rect x="4" y="26" width="6" height="4"/> <rect x="4" y="18" width="6" height="4"/> <rect x="4" y="10" width="6" height="4"/> <path d="M44,24l-4-8h-4v-4c0-2.2-1.8-4-4-4H16c-2.2,0-4,1.8-4,4v20c0,2.2,1.8,4,4,4h2c0,2.209,1.791,4,4,4s4-1.791,4-4h7 c0,2.209,1.791,4,4,4s4-1.791,4-4h3V24z M38,36c0,0.551-0.449,1-1,1s-1-0.449-1-1s0.449-1,1-1S38,35.449,38,36z M22,37 c-0.551,0-1-0.449-1-1s0.449-1,1-1s1,0.449,1,1S22.551,37,22,37z M41,26h-1c-2.2,0-4-1.8-4-4v-3h2.146L41,24.708V26z"/> </g> </g>
</svg>